<svg xmlns="http://www.w3.org/2000/svg" width="1921.5" height="1330" viewBox="0 0 1921.5 1330"><defs><style>.a{fill:#d6e4f9;}.b{fill:#fcf0f7;}.c{fill:#fff;}.d{fill:#b7dde5;}.e{fill:#edb5bf;}.f{fill:#fcedf6;}.g{fill:#ab98a6;}.h{fill:#fbf3f7;}</style></defs><g transform="translate(1 -66.06)"><path class="a" d="M.5,96.5s143-46,341-23,690,39,690,39l498,12S1880,129.56,1921,68.56v1328.5L0,1396Z" transform="translate(-1 -1)"/><path class="b" d="M0,356s176,5,395,74a1015.385,1015.385,0,0,0,186.63,43.88c77.3,10.58,174.92,14.73,475.87-34.38,251-40.95,296.61-62.36,418-54a937.5,937.5,0,0,1,254,54L1920,515v880H0Z"/><path class="c" d="M0,655a133.438,133.438,0,0,1,31.75-16.37c30.36-10.78,57.43-7.84,71.75-5.13-2.54-11.73-7.83-44,8.74-77.25,30.07-60.37,102.9-65.57,106.26-65.75,13.41-1.32,91.86-7.81,144,47a145.871,145.871,0,0,1,29,45c8-4,103.24-50.08,189,1,40.78,24.29,61.2,59.71,70,78a53.181,53.181,0,0,1,26.4-.29,54.08,54.08,0,0,1,28.6,18.29c8.48-7.34,44.68-37,99-36,58.24,1.09,94.78,36.67,102,44,6.64-9.22,39.47-52.79,99-62,3.93-.61,80.33-11.17,128,43a128.108,128.108,0,0,1,26,47c15.22-8.75,57.87-30.61,115.42-25.82,61.52,5.12,101.71,37.51,114.58,48.82a107.117,107.117,0,0,1,29.25-18.12c29.79-12.33,57.18-7.61,68.75-4.88-.16-25.38,4.61-63.82,31-95,54.16-64,169.36-61.91,228-8,19.83,18.23,29.87,39.33,35,53a193.781,193.781,0,0,1,138-17q.49,373,1,746H.5Z"/><g transform="translate(0 26.06)"><circle class="d" cx="9.5" cy="9.5" r="9.5" transform="translate(786 1213)"/><circle class="e" cx="7.5" cy="7.5" r="7.5" transform="translate(1199 1265)"/><circle class="f" cx="22.5" cy="22.5" r="22.5" transform="translate(538 1194)"/><circle class="g" cx="9" cy="9" r="9" transform="translate(460 1102)"/><circle class="h" cx="15" cy="15" r="15" transform="translate(1121 912)"/></g><path class="c" d="M1539.33,218.18c5.79-5.44,14.8-6.7,22.67-3.18a18.51,18.51,0,0,1,23-8c-.7-3.15-2.36-12.67,3-21,8.4-13.06,29.73-16.55,41-7,6.1,5.17,7.57,12.74,8,16,1.34-1,12.68-9,26.73-4.88A31,31,0,0,1,1685,213a8.171,8.171,0,0,1,2.75-.12c4.32.52,6.78,4.35,7.25,5.12a23.218,23.218,0,0,1,9-7c6.64-2.86,15.31-2.72,22,2,9.11,6.43,11.76,19.4,7,29-4.34,8.75-13.24,11.49-15,12H1547a24.089,24.089,0,0,1-11-11C1532.81,236.23,1531.85,225.19,1539.33,218.18Z"/><path class="c" d="M1592.982,183c6.375-9.912,18.769-12.561,27.322-5.313,4.63,3.924,5.745,9.669,6.072,12.143,1.017-.759,9.624-6.831,20.287-3.7a23.527,23.527,0,0,1,16.143,17.365,6.2,6.2,0,0,1,2.087-.091c3.279.395,5.146,3.3,5.5,3.886a17.62,17.62,0,0,1,6.831-5.313,17.429,17.429,0,0,1,16.7,1.518c6.914,4.88,8.925,14.724,5.313,22.009-3.294,6.641-10.048,8.72-11.384,9.107l-94.869.172C1592.982,224.033,1592.856,189.88,1592.982,183Z" transform="translate(-1593)"/><path class="c" d="M1536.487,195.994a10.441,10.441,0,0,1,11.4-1.6,9.3,9.3,0,0,1,11.562-4.021c-.352-1.583-1.186-6.369,1.508-10.556,4.222-6.565,14.944-8.319,20.61-3.519a12.734,12.734,0,0,1,4.021,8.043c.674-.5,6.374-4.524,13.437-2.453a15.583,15.583,0,0,1,10.692,11.5,4.107,4.107,0,0,1,1.382-.06,5.352,5.352,0,0,1,3.645,2.574,11.671,11.671,0,0,1,4.524-3.519,11.544,11.544,0,0,1,11.059,1.005,11.823,11.823,0,0,1,3.519,14.577A12.346,12.346,0,0,1,1626.3,214h-85.957a12.108,12.108,0,0,1-5.529-5.529C1533.209,205.068,1532.727,199.518,1536.487,195.994Z" transform="translate(-1320 154)"/></g></svg>